<svg role="img" viewBox="0 0 75 75" xmlns="http://www.w3.org/2000/svg"><title>Fresh</title><path d="M70.289,11.409c11.266,27.5 -0,42.285 -9.531,50.437c2.329,8.152 -6.955,9.834 -10.481,5.823c-10.381,3.58 -31.471,3.463 -46.583,-11.646c-8.152,-8.152 -1.793,-26.286 19.798,-38.43c18.633,-10.481 37.266,-16.304 46.797,-6.184Zm-12.943,-0.171c-0.95,-0.257 -4.875,0.32 -5.83,0.646c-0,-0.65 -1.057,-1.432 -1.91,-1.465c-5.152,0.815 -17.287,5.171 -26.992,11.694c-2.183,1.466 -2.19,1.801 -0.939,3.601c-1.875,0 -3.24,-0.335 -5.317,1.503c-11.499,10.173 -15.151,21.246 -7.02,21.246c3.754,-0 10.411,-1.812 13.59,-3.005c0.545,-0.205 2.176,-4.446 2.176,-5.417c-0,-2.916 2.913,2.732 3.766,2.329c3.067,-1.444 9.761,-4.98 18.454,-11.25c9.172,-6.617 20.841,-16.971 10.022,-19.882Z"/><path d="M24.184,29.215c2.294,-1.74 3.829,-2.352 4.888,-5.883c1.319,0.281 1.959,-0.187 3.005,-1.633c0.755,1.085 3.859,1.416 5.713,1.633c-1.665,1.05 -2.461,1.984 -3.381,4.905c-3.41,-1.423 -7.377,-0.704 -10.225,0.978Z"/></svg>