<?xml version="1.0" encoding="UTF-8" standalone="no"?><!DOCTYPE svg PUBLIC "-//W3C//DTD SVG 1.1//EN" "http://www.w3.org/Graphics/SVG/1.1/DTD/svg11.dtd"><svg width="100%" height="100%" viewBox="0 0 134 134" version="1.1" xmlns="http://www.w3.org/2000/svg" xmlns:xlink="http://www.w3.org/1999/xlink" xml:space="preserve" xmlns:serif="http://www.serif.com/" style="fill-rule:evenodd;clip-rule:evenodd;stroke-linejoin:round;stroke-miterlimit:2;"><rect id="Background" x="0" y="0" width="133.333" height="133.333" style="fill:#883ece;"/><g><path d="M24.179,61.567l25.275,-0l-0,9.45l-25.275,-0l0,-9.45Zm0.9,21.599l28.575,0l-0,9.75l-40.65,0l0,-52.499l39.675,0l-0,9.75l-27.6,0l0,32.999Z" style="fill:#fff;fill-rule:nonzero;"/><path d="M73.98,81.516l2.175,-16.949l26.699,-24.15l17.475,0l-27.375,24.45l-9.899,8.475l-9.075,8.174Zm-15.675,11.4l10.5,-52.499l14.625,0l-10.5,52.499l-14.625,0Zm36.074,0l-13.874,-21.674l10.8,-9.975l19.649,31.649l-16.575,0Z" style="fill:#fff;fill-rule:nonzero;"/></g></svg>