<?xml version="1.0" encoding="UTF-8" standalone="no"?><!DOCTYPE svg PUBLIC "-//W3C//DTD SVG 1.1//EN" "http://www.w3.org/Graphics/SVG/1.1/DTD/svg11.dtd"><svg width="100%" height="100%" viewBox="0 0 32 32" version="1.1" xmlns="http://www.w3.org/2000/svg" xmlns:xlink="http://www.w3.org/1999/xlink" xml:space="preserve" xmlns:serif="http://www.serif.com/" style="fill-rule:evenodd;clip-rule:evenodd;stroke-linejoin:round;stroke-miterlimit:2;"><rect id="Favicon" x="0" y="0" width="32" height="32" style="fill:none;"/><g id="Favicon1" serif:id="Favicon"><path d="M30.654,4.333l0,23.334c0,1.649 -1.338,2.987 -2.987,2.987l-23.334,0c-1.649,0 -2.987,-1.338 -2.987,-2.987l-0,-23.334c-0,-1.649 1.338,-2.987 2.987,-2.987l23.334,-0c1.649,-0 2.987,1.338 2.987,2.987Z" style="fill:none;"/><clipPath id="_clip1"><path d="M30.654,4.333l0,23.334c0,1.649 -1.338,2.987 -2.987,2.987l-23.334,0c-1.649,0 -2.987,-1.338 -2.987,-2.987l-0,-23.334c-0,-1.649 1.338,-2.987 2.987,-2.987l23.334,-0c1.649,-0 2.987,1.338 2.987,2.987Z"/></clipPath><g clip-path="url(#_clip1)"><rect x="-3.169" y="-3.169" width="38.338" height="38.338" style="fill:#883ecd;"/><path d="M9.48,12.576l0,2.272l3.664,0l0,2.112l-3.664,0l0,2.464l4.144,0l0,2.192l-6.88,0l0,-11.232l6.88,0l0,2.192l-4.144,0Z" style="fill:#fff;fill-rule:nonzero;"/><path d="M21.912,21.616l-3.776,-4.96l-0,4.96l-2.736,0l-0,-11.232l2.736,0l-0,4.928l3.744,-4.928l3.216,0l-4.352,5.504l4.512,5.728l-3.344,0Z" style="fill:#fff;fill-rule:nonzero;"/></g></g></svg>