<?xml version="1.0" encoding="UTF-8" standalone="no"?><!DOCTYPE svg PUBLIC "-//W3C//DTD SVG 1.1//EN" "http://www.w3.org/Graphics/SVG/1.1/DTD/svg11.dtd"><svg width="100%" height="100%" viewBox="0 0 134 134" version="1.1" xmlns="http://www.w3.org/2000/svg" xmlns:xlink="http://www.w3.org/1999/xlink" xml:space="preserve" xmlns:serif="http://www.serif.com/" style="fill-rule:evenodd;clip-rule:evenodd;stroke-linejoin:round;stroke-miterlimit:2;"><rect id="Favicon" x="0" y="0" width="133.333" height="133.333" style="fill:none;"/><g id="Favicon1" serif:id="Favicon"><rect id="Background" x="0" y="0" width="133.333" height="133.333" style="fill:#883ece;"/><g><path d="M26.39,61.567l25.274,-0l0,9.45l-25.274,-0l-0,-9.45Zm0.9,21.599l28.574,0l0,9.75l-40.649,0l-0,-52.499l39.674,0l0,9.75l-27.599,0l-0,32.999Z" style="fill:#fff;fill-rule:nonzero;"/><path d="M76.19,81.516l2.175,-16.949l26.7,-24.15l17.474,0l-27.374,24.45l-9.9,8.475l-9.075,8.174Zm-15.674,11.4l10.499,-52.499l14.625,0l-10.5,52.499l-14.624,0Zm36.074,0l-13.875,-21.674l10.8,-9.975l19.65,31.649l-16.575,0Z" style="fill:#fff;fill-rule:nonzero;"/></g></g></svg>