<?xml version="1.0" encoding="UTF-8" standalone="no"?><!DOCTYPE svg PUBLIC "-//W3C//DTD SVG 1.1//EN" "http://www.w3.org/Graphics/SVG/1.1/DTD/svg11.dtd"><svg width="100%" height="100%" viewBox="0 0 134 134" version="1.1" xmlns="http://www.w3.org/2000/svg" xmlns:xlink="http://www.w3.org/1999/xlink" xml:space="preserve" xmlns:serif="http://www.serif.com/" style="fill-rule:evenodd;clip-rule:evenodd;stroke-linejoin:round;stroke-miterlimit:2;"><path d="M133.333,33.333l0,66.667c0,18.397 -14.936,33.333 -33.333,33.333l-66.667,0c-18.397,0 -33.333,-14.936 -33.333,-33.333l0,-66.667c0,-18.397 14.936,-33.333 33.333,-33.333l66.667,0c18.397,0 33.333,14.936 33.333,33.333Z" style="fill:#883ecd;"/><rect id="Favicon" x="0" y="0" width="133.333" height="133.333" style="fill:none;"/><g id="Favicon1" serif:id="Favicon"><g><path d="M27.503,63.315l23.887,0c0.13,0 0.254,0.052 0.345,0.143c0.091,0.092 0.143,0.216 0.143,0.345c-0,1.636 -0,6.918 -0,8.506c-0,0.121 -0.048,0.237 -0.134,0.323c-0.085,0.085 -0.201,0.133 -0.322,0.133c-3.342,0 -23.919,0 -23.919,0l-0,-9.45Zm-0,20.529c-0,0.592 0.48,1.071 1.071,1.071c4.337,0 20.606,0 25.858,0c0.909,0 1.646,0.737 1.646,1.646c-0,2.108 -0,5.679 -0,7.282c-0,0.454 -0.368,0.822 -0.823,0.822c-5.117,0 -32.581,0 -38.643,0c-0.654,0 -1.184,-0.53 -1.184,-1.184c-0,-6.841 -0,-41.268 -0,-49.531c-0,-0.473 0.188,-0.927 0.523,-1.262c0.334,-0.335 0.788,-0.523 1.262,-0.523c6.727,0 30.471,0 36.493,0c0.37,0 0.726,0.148 0.988,0.409c0.262,0.262 0.409,0.618 0.409,0.988c-0,0.872 -0,2.053 -0,3.252c-0,2.817 -2.284,5.101 -5.101,5.101c-7.977,0 -22.499,0 -22.499,0l-0,31.929Z" style="fill:#fff;fill-rule:nonzero;"/><path d="M76.558,80.767l2.82,-14.1c-0,-0 23.598,-21.16 26.934,-24.152c0.252,-0.225 0.578,-0.35 0.915,-0.35c2.05,0 9.563,0 12.741,0c0.225,0 0.427,0.14 0.507,0.351c0.08,0.211 0.02,0.449 -0.149,0.598c-5.102,4.493 -26.598,23.426 -26.598,23.426l-8.025,6.825l-9.145,7.402Zm-13.209,13.898c-0.404,0 -0.787,-0.181 -1.044,-0.494c-0.256,-0.312 -0.359,-0.723 -0.279,-1.12c1.62,-8.103 8.838,-44.19 10.014,-50.074c0.095,-0.472 0.51,-0.812 0.991,-0.812c2.231,0 8.343,0 10.489,0c0.186,0 0.363,0.084 0.481,0.228c0.118,0.144 0.165,0.333 0.128,0.515c-1.159,5.795 -8.742,43.714 -10.132,50.664c-0.128,0.636 -0.686,1.093 -1.334,1.093c-2.137,0 -6.817,0 -9.314,0Zm35.691,0c-0.411,0 -0.791,-0.216 -1.001,-0.568c-2.014,-3.386 -12.336,-20.732 -12.336,-20.732l7.876,-6.698c0,-0 13.226,20.072 17.281,26.226c0.232,0.351 0.251,0.801 0.052,1.171c-0.199,0.371 -0.586,0.601 -1.006,0.601c-3.155,0 -8.92,0 -10.866,0Z" style="fill:#fff;fill-rule:nonzero;"/></g></g></svg>